<?xml version="1.0" encoding="UTF-8" standalone="no"?><svg xmlns="http://www.w3.org/2000/svg" xmlns:xlink="http://www.w3.org/1999/xlink" contentScriptType="application/ecmascript" contentStyleType="text/css" height="770px" preserveAspectRatio="none" style="width:291px;height:770px;" version="1.1" viewBox="0 0 291 770" width="291px" zoomAndPan="magnify"><defs><filter height="300%" id="f1j48b8j7f2vbk" width="300%" x="-1" y="-1"><feGaussianBlur result="blurOut" stdDeviation="2.0"/><feColorMatrix in="blurOut" result="blurOut2" type="matrix" values="0 0 0 0 0 0 0 0 0 0 0 0 0 0 0 0 0 0 .4 0"/><feOffset dx="4.0" dy="4.0" in="blurOut2" result="blurOut3"/><feBlend in="SourceGraphic" in2="blurOut3" mode="normal"/></filter></defs><g><ellipse cx="105.5" cy="20" fill="#000000" filter="url(#f1j48b8j7f2vbk)" rx="10" ry="10" style="stroke: none; stroke-width: 1.0;"/><rect fill="#FEFECE" filter="url(#f1j48b8j7f2vbk)" height="36.3887" rx="12.5" ry="12.5" style="stroke: #A80036; stroke-width: 1.5;" width="125" x="43" y="155.9001"/><text fill="#000000" font-family="sans-serif" font-size="12" lengthAdjust="spacingAndGlyphs" textLength="105" x="53" y="179.6521">receive[n++]=SBUF</text><rect fill="#FEFECE" filter="url(#f1j48b8j7f2vbk)" height="36.3887" rx="12.5" ry="12.5" style="stroke: #A80036; stroke-width: 1.5;" width="86" x="62.5" y="261.8003"/><text fill="#000000" font-family="sans-serif" font-size="12" lengthAdjust="spacingAndGlyphs" textLength="66" x="72.5" y="285.5522">receive[n]=0</text><rect fill="#FEFECE" filter="url(#f1j48b8j7f2vbk)" height="36.3887" rx="12.5" ry="12.5" style="stroke: #A80036; stroke-width: 1.5;" width="191" x="10" y="367.7004"/><text fill="#000000" font-family="sans-serif" font-size="12" lengthAdjust="spacingAndGlyphs" textLength="171" x="20" y="391.4524">将receive的数据保存到gpsSave</text><polygon fill="#FEFECE" filter="url(#f1j48b8j7f2vbk)" points="54.5,318.189,156.5,318.189,168.5,330.189,156.5,342.189,54.5,342.189,42.5,330.189,54.5,318.189" style="stroke: #A80036; stroke-width: 1.5;"/><text fill="#000000" font-family="sans-serif" font-size="11" lengthAdjust="spacingAndGlyphs" textLength="19" x="109.5" y="354.7949">true</text><text fill="#000000" font-family="sans-serif" font-size="11" lengthAdjust="spacingAndGlyphs" textLength="102" x="54.5" y="335.2834">receive为有效数据？</text><text fill="#000000" font-family="sans-serif" font-size="11" lengthAdjust="spacingAndGlyphs" textLength="24" x="168.5" y="327.772">false</text><polygon fill="#FEFECE" filter="url(#f1j48b8j7f2vbk)" points="105.5,429.6006,117.5,441.6006,105.5,453.6006,93.5,441.6006,105.5,429.6006" style="stroke: #A80036; stroke-width: 1.5;"/><rect fill="#FEFECE" filter="url(#f1j48b8j7f2vbk)" height="36.3887" rx="12.5" ry="12.5" style="stroke: #A80036; stroke-width: 1.5;" width="41" x="85" y="473.6006"/><text fill="#000000" font-family="sans-serif" font-size="12" lengthAdjust="spacingAndGlyphs" textLength="21" x="95" y="497.3525">n=0</text><rect fill="#FEFECE" filter="url(#f1j48b8j7f2vbk)" height="36.3887" rx="12.5" ry="12.5" style="stroke: #A80036; stroke-width: 1.5;" width="95" x="58" y="529.9893"/><text fill="#000000" font-family="sans-serif" font-size="12" lengthAdjust="spacingAndGlyphs" textLength="75" x="68" y="553.7412">receive初始化</text><polygon fill="#FEFECE" filter="url(#f1j48b8j7f2vbk)" points="79.5,212.2888,131.5,212.2888,143.5,224.2888,131.5,236.2888,79.5,236.2888,67.5,224.2888,79.5,212.2888" style="stroke: #A80036; stroke-width: 1.5;"/><text fill="#000000" font-family="sans-serif" font-size="11" lengthAdjust="spacingAndGlyphs" textLength="19" x="109.5" y="248.8948">true</text><text fill="#000000" font-family="sans-serif" font-size="11" lengthAdjust="spacingAndGlyphs" textLength="52" x="79.5" y="229.3833">SBUF='\n'?</text><text fill="#000000" font-family="sans-serif" font-size="11" lengthAdjust="spacingAndGlyphs" textLength="24" x="143.5" y="221.8718">false</text><polygon fill="#FEFECE" filter="url(#f1j48b8j7f2vbk)" points="105.5,586.3779,117.5,598.3779,105.5,610.3779,93.5,598.3779,105.5,586.3779" style="stroke: #A80036; stroke-width: 1.5;"/><rect fill="#FEFECE" filter="url(#f1j48b8j7f2vbk)" height="36.3887" rx="12.5" ry="12.5" style="stroke: #A80036; stroke-width: 1.5;" width="46" x="82.5" y="630.3779"/><text fill="#000000" font-family="sans-serif" font-size="12" lengthAdjust="spacingAndGlyphs" textLength="26" x="92.5" y="654.1299">RI=0</text><polygon fill="#FEFECE" filter="url(#f1j48b8j7f2vbk)" points="92,106.3887,119,106.3887,131,118.3887,119,130.3887,92,130.3887,80,118.3887,92,106.3887" style="stroke: #A80036; stroke-width: 1.5;"/><text fill="#000000" font-family="sans-serif" font-size="11" lengthAdjust="spacingAndGlyphs" textLength="19" x="109.5" y="142.9946">true</text><text fill="#000000" font-family="sans-serif" font-size="11" lengthAdjust="spacingAndGlyphs" textLength="27" x="92" y="123.4832">RI=1?</text><text fill="#000000" font-family="sans-serif" font-size="11" lengthAdjust="spacingAndGlyphs" textLength="24" x="131" y="115.9717">false</text><polygon fill="#FEFECE" filter="url(#f1j48b8j7f2vbk)" points="105.5,686.7666,117.5,698.7666,105.5,710.7666,93.5,698.7666,105.5,686.7666" style="stroke: #A80036; stroke-width: 1.5;"/><rect fill="#FEFECE" filter="url(#f1j48b8j7f2vbk)" height="36.3887" rx="12.5" ry="12.5" style="stroke: #A80036; stroke-width: 1.5;" width="100" x="55.5" y="50"/><text fill="#000000" font-family="sans-serif" font-size="12" lengthAdjust="spacingAndGlyphs" textLength="80" x="65.5" y="73.752">发生UART中断</text><line style="stroke: #A80036; stroke-width: 1.5;" x1="105.5" x2="105.5" y1="342.189" y2="367.7004"/><polygon fill="#A80036" points="101.5,357.7004,105.5,367.7004,109.5,357.7004,105.5,361.7004" style="stroke: #A80036; stroke-width: 1.0;"/><line style="stroke: #A80036; stroke-width: 1.5;" x1="168.5" x2="211" y1="330.189" y2="330.189"/><polygon fill="#A80036" points="207,375.8948,211,385.8948,215,375.8948,211,379.8948" style="stroke: #A80036; stroke-width: 1.5;"/><line style="stroke: #A80036; stroke-width: 1.5;" x1="211" x2="211" y1="330.189" y2="441.6006"/><line style="stroke: #A80036; stroke-width: 1.5;" x1="211" x2="117.5" y1="441.6006" y2="441.6006"/><polygon fill="#A80036" points="127.5,437.6006,117.5,441.6006,127.5,445.6006,123.5,441.6006" style="stroke: #A80036; stroke-width: 1.0;"/><line style="stroke: #A80036; stroke-width: 1.5;" x1="105.5" x2="105.5" y1="404.0891" y2="429.6006"/><polygon fill="#A80036" points="101.5,419.6006,105.5,429.6006,109.5,419.6006,105.5,423.6006" style="stroke: #A80036; stroke-width: 1.0;"/><line style="stroke: #A80036; stroke-width: 1.5;" x1="105.5" x2="105.5" y1="298.189" y2="318.189"/><polygon fill="#A80036" points="101.5,308.189,105.5,318.189,109.5,308.189,105.5,312.189" style="stroke: #A80036; stroke-width: 1.0;"/><line style="stroke: #A80036; stroke-width: 1.5;" x1="105.5" x2="105.5" y1="453.6006" y2="473.6006"/><polygon fill="#A80036" points="101.5,463.6006,105.5,473.6006,109.5,463.6006,105.5,467.6006" style="stroke: #A80036; stroke-width: 1.0;"/><line style="stroke: #A80036; stroke-width: 1.5;" x1="105.5" x2="105.5" y1="509.9893" y2="529.9893"/><polygon fill="#A80036" points="101.5,519.9893,105.5,529.9893,109.5,519.9893,105.5,523.9893" style="stroke: #A80036; stroke-width: 1.0;"/><line style="stroke: #A80036; stroke-width: 1.5;" x1="105.5" x2="105.5" y1="236.2888" y2="261.8003"/><polygon fill="#A80036" points="101.5,251.8003,105.5,261.8003,109.5,251.8003,105.5,255.8003" style="stroke: #A80036; stroke-width: 1.0;"/><line style="stroke: #A80036; stroke-width: 1.5;" x1="143.5" x2="229" y1="224.2888" y2="224.2888"/><polygon fill="#A80036" points="225,411.5891,229,421.5891,233,411.5891,229,415.5891" style="stroke: #A80036; stroke-width: 1.5;"/><line style="stroke: #A80036; stroke-width: 1.5;" x1="229" x2="229" y1="224.2888" y2="598.3779"/><line style="stroke: #A80036; stroke-width: 1.5;" x1="229" x2="117.5" y1="598.3779" y2="598.3779"/><polygon fill="#A80036" points="127.5,594.3779,117.5,598.3779,127.5,602.3779,123.5,598.3779" style="stroke: #A80036; stroke-width: 1.0;"/><line style="stroke: #A80036; stroke-width: 1.5;" x1="105.5" x2="105.5" y1="566.3779" y2="586.3779"/><polygon fill="#A80036" points="101.5,576.3779,105.5,586.3779,109.5,576.3779,105.5,580.3779" style="stroke: #A80036; stroke-width: 1.0;"/><line style="stroke: #A80036; stroke-width: 1.5;" x1="105.5" x2="105.5" y1="192.2888" y2="212.2888"/><polygon fill="#A80036" points="101.5,202.2888,105.5,212.2888,109.5,202.2888,105.5,206.2888" style="stroke: #A80036; stroke-width: 1.0;"/><line style="stroke: #A80036; stroke-width: 1.5;" x1="105.5" x2="105.5" y1="610.3779" y2="630.3779"/><polygon fill="#A80036" points="101.5,620.3779,105.5,630.3779,109.5,620.3779,105.5,624.3779" style="stroke: #A80036; stroke-width: 1.0;"/><line style="stroke: #A80036; stroke-width: 1.5;" x1="105.5" x2="105.5" y1="130.3887" y2="155.9001"/><polygon fill="#A80036" points="101.5,145.9001,105.5,155.9001,109.5,145.9001,105.5,149.9001" style="stroke: #A80036; stroke-width: 1.0;"/><line style="stroke: #A80036; stroke-width: 1.5;" x1="131" x2="247" y1="118.3887" y2="118.3887"/><polygon fill="#A80036" points="243,411.5891,247,421.5891,251,411.5891,247,415.5891" style="stroke: #A80036; stroke-width: 1.5;"/><line style="stroke: #A80036; stroke-width: 1.5;" x1="247" x2="247" y1="118.3887" y2="698.7666"/><line style="stroke: #A80036; stroke-width: 1.5;" x1="247" x2="117.5" y1="698.7666" y2="698.7666"/><polygon fill="#A80036" points="127.5,694.7666,117.5,698.7666,127.5,702.7666,123.5,698.7666" style="stroke: #A80036; stroke-width: 1.0;"/><line style="stroke: #A80036; stroke-width: 1.5;" x1="105.5" x2="105.5" y1="666.7666" y2="686.7666"/><polygon fill="#A80036" points="101.5,676.7666,105.5,686.7666,109.5,676.7666,105.5,680.7666" style="stroke: #A80036; stroke-width: 1.0;"/><line style="stroke: #A80036; stroke-width: 1.5;" x1="105.5" x2="105.5" y1="86.3887" y2="106.3887"/><polygon fill="#A80036" points="101.5,96.3887,105.5,106.3887,109.5,96.3887,105.5,100.3887" style="stroke: #A80036; stroke-width: 1.0;"/><line style="stroke: #A80036; stroke-width: 1.5;" x1="105.5" x2="105.5" y1="710.7666" y2="758.7666"/><line style="stroke: #A80036; stroke-width: 1.5;" x1="105.5" x2="265" y1="758.7666" y2="758.7666"/><polygon fill="#A80036" points="261,422.4919,265,412.4919,269,422.4919,265,418.4919" style="stroke: #A80036; stroke-width: 1.5;"/><line style="stroke: #A80036; stroke-width: 1.5;" x1="265" x2="265" y1="68.1943" y2="758.7666"/><line style="stroke: #A80036; stroke-width: 1.5;" x1="265" x2="155.5" y1="68.1943" y2="68.1943"/><polygon fill="#A80036" points="165.5,64.1943,155.5,68.1943,165.5,72.1943,161.5,68.1943" style="stroke: #A80036; stroke-width: 1.0;"/><line style="stroke: #A80036; stroke-width: 1.5;" x1="105.5" x2="105.5" y1="30" y2="50"/><polygon fill="#A80036" points="101.5,40,105.5,50,109.5,40,105.5,44" style="stroke: #A80036; stroke-width: 1.0;"/><!--
@startuml dingwei
start
repeat:发生UART中断;
if(RI=1?) then(true)
:receive[n++]=SBUF;
if(SBUF='\\n'?) then(true)
:receive[n]=0;
if(receive为有效数据？) then(true)
:将receive的数据保存到gpsSave;
else(false)
endif
:n=0;
:receive初始化;
else(false)
endif
:RI=0;
else(false)
endif
repeat while
@enduml

PlantUML version 1.2019.09(Tue Aug 27 00:19:51 CST 2019)
(GPL source distribution)
Java Runtime: Java(TM) SE Runtime Environment
JVM: Java HotSpot(TM) 64-Bit Server VM
Java Version: 9.0.1+11
Operating System: Windows 10
OS Version: 10.0
Default Encoding: GBK
Language: zh
Country: CN
--></g></svg>