<?xml version="1.0" encoding="UTF-8" standalone="no"?><svg xmlns="http://www.w3.org/2000/svg" xmlns:xlink="http://www.w3.org/1999/xlink" contentScriptType="application/ecmascript" contentStyleType="text/css" height="348px" preserveAspectRatio="none" style="width:414px;height:348px;" version="1.1" viewBox="0 0 414 348" width="414px" zoomAndPan="magnify"><defs><filter height="300%" id="fj51i0wi5lhry" width="300%" x="-1" y="-1"><feGaussianBlur result="blurOut" stdDeviation="2.0"/><feColorMatrix in="blurOut" result="blurOut2" type="matrix" values="0 0 0 0 0 0 0 0 0 0 0 0 0 0 0 0 0 0 .4 0"/><feOffset dx="4.0" dy="4.0" in="blurOut2" result="blurOut3"/><feBlend in="SourceGraphic" in2="blurOut3" mode="normal"/></filter></defs><g><ellipse cx="192" cy="20" fill="#000000" filter="url(#fj51i0wi5lhry)" rx="10" ry="10" style="stroke: none; stroke-width: 1.0;"/><rect fill="#000000" filter="url(#fj51i0wi5lhry)" height="6" rx="2.5" ry="2.5" style="stroke: #000000; stroke-width: 1.0;" width="366" x="10" y="106.3887"/><rect fill="#FEFECE" filter="url(#fj51i0wi5lhry)" height="36.3887" rx="12.5" ry="12.5" style="stroke: #A80036; stroke-width: 1.5;" width="128" x="22" y="181.9001"/><text fill="#000000" font-family="sans-serif" font-size="12" lengthAdjust="spacingAndGlyphs" textLength="108" x="32" y="205.6521">保存发送过来的数据</text><polygon fill="#FEFECE" filter="url(#fj51i0wi5lhry)" points="58.5,132.3887,113.5,132.3887,125.5,144.3887,113.5,156.3887,58.5,156.3887,46.5,144.3887,58.5,132.3887" style="stroke: #A80036; stroke-width: 1.5;"/><text fill="#000000" font-family="sans-serif" font-size="11" lengthAdjust="spacingAndGlyphs" textLength="19" x="90" y="168.9946">true</text><text fill="#000000" font-family="sans-serif" font-size="11" lengthAdjust="spacingAndGlyphs" textLength="55" x="58.5" y="149.4832">来自拐杖？</text><text fill="#000000" font-family="sans-serif" font-size="11" lengthAdjust="spacingAndGlyphs" textLength="24" x="125.5" y="141.9717">false</text><polygon fill="#FEFECE" filter="url(#fj51i0wi5lhry)" points="86,238.2888,98,250.2888,86,262.2888,74,250.2888,86,238.2888" style="stroke: #A80036; stroke-width: 1.5;"/><rect fill="#FEFECE" filter="url(#fj51i0wi5lhry)" height="36.3887" rx="12.5" ry="12.5" style="stroke: #A80036; stroke-width: 1.5;" width="140" x="210" y="181.9001"/><text fill="#000000" font-family="sans-serif" font-size="12" lengthAdjust="spacingAndGlyphs" textLength="120" x="220" y="205.6521">把保存的数据发送过去</text><polygon fill="#FEFECE" filter="url(#fj51i0wi5lhry)" points="247,132.3887,313,132.3887,325,144.3887,313,156.3887,247,156.3887,235,144.3887,247,132.3887" style="stroke: #A80036; stroke-width: 1.5;"/><text fill="#000000" font-family="sans-serif" font-size="11" lengthAdjust="spacingAndGlyphs" textLength="19" x="284" y="168.9946">true</text><text fill="#000000" font-family="sans-serif" font-size="11" lengthAdjust="spacingAndGlyphs" textLength="66" x="247" y="149.4832">来自手机端？</text><text fill="#000000" font-family="sans-serif" font-size="11" lengthAdjust="spacingAndGlyphs" textLength="24" x="325" y="141.9717">false</text><polygon fill="#FEFECE" filter="url(#fj51i0wi5lhry)" points="280,238.2888,292,250.2888,280,262.2888,268,250.2888,280,238.2888" style="stroke: #A80036; stroke-width: 1.5;"/><rect fill="#000000" filter="url(#fj51i0wi5lhry)" height="6" rx="2.5" ry="2.5" style="stroke: #000000; stroke-width: 1.0;" width="366" x="10" y="282.2888"/><rect fill="#FEFECE" filter="url(#fj51i0wi5lhry)" height="36.3887" rx="12.5" ry="12.5" style="stroke: #A80036; stroke-width: 1.5;" width="92" x="146" y="50"/><text fill="#000000" font-family="sans-serif" font-size="12" lengthAdjust="spacingAndGlyphs" textLength="72" x="156" y="73.752">等待TCP连接</text><line style="stroke: #A80036; stroke-width: 1.5;" x1="86" x2="86" y1="156.3887" y2="181.9001"/><polygon fill="#A80036" points="82,171.9001,86,181.9001,90,171.9001,86,175.9001" style="stroke: #A80036; stroke-width: 1.0;"/><line style="stroke: #A80036; stroke-width: 1.5;" x1="125.5" x2="160" y1="144.3887" y2="144.3887"/><polygon fill="#A80036" points="156,190.0945,160,200.0945,164,190.0945,160,194.0945" style="stroke: #A80036; stroke-width: 1.5;"/><line style="stroke: #A80036; stroke-width: 1.5;" x1="160" x2="160" y1="144.3887" y2="250.2888"/><line style="stroke: #A80036; stroke-width: 1.5;" x1="160" x2="98" y1="250.2888" y2="250.2888"/><polygon fill="#A80036" points="108,246.2888,98,250.2888,108,254.2888,104,250.2888" style="stroke: #A80036; stroke-width: 1.0;"/><line style="stroke: #A80036; stroke-width: 1.5;" x1="86" x2="86" y1="218.2888" y2="238.2888"/><polygon fill="#A80036" points="82,228.2888,86,238.2888,90,228.2888,86,232.2888" style="stroke: #A80036; stroke-width: 1.0;"/><line style="stroke: #A80036; stroke-width: 1.5;" x1="280" x2="280" y1="156.3887" y2="181.9001"/><polygon fill="#A80036" points="276,171.9001,280,181.9001,284,171.9001,280,175.9001" style="stroke: #A80036; stroke-width: 1.0;"/><line style="stroke: #A80036; stroke-width: 1.5;" x1="325" x2="360" y1="144.3887" y2="144.3887"/><polygon fill="#A80036" points="356,190.0945,360,200.0945,364,190.0945,360,194.0945" style="stroke: #A80036; stroke-width: 1.5;"/><line style="stroke: #A80036; stroke-width: 1.5;" x1="360" x2="360" y1="144.3887" y2="250.2888"/><line style="stroke: #A80036; stroke-width: 1.5;" x1="360" x2="292" y1="250.2888" y2="250.2888"/><polygon fill="#A80036" points="302,246.2888,292,250.2888,302,254.2888,298,250.2888" style="stroke: #A80036; stroke-width: 1.0;"/><line style="stroke: #A80036; stroke-width: 1.5;" x1="280" x2="280" y1="218.2888" y2="238.2888"/><polygon fill="#A80036" points="276,228.2888,280,238.2888,284,228.2888,280,232.2888" style="stroke: #A80036; stroke-width: 1.0;"/><line style="stroke: #A80036; stroke-width: 1.5;" x1="86" x2="86" y1="112.3887" y2="132.3887"/><polygon fill="#A80036" points="82,122.3887,86,132.3887,90,122.3887,86,126.3887" style="stroke: #A80036; stroke-width: 1.0;"/><line style="stroke: #A80036; stroke-width: 1.5;" x1="280" x2="280" y1="112.3887" y2="132.3887"/><polygon fill="#A80036" points="276,122.3887,280,132.3887,284,122.3887,280,126.3887" style="stroke: #A80036; stroke-width: 1.0;"/><line style="stroke: #A80036; stroke-width: 1.5;" x1="86" x2="86" y1="262.2888" y2="282.2888"/><polygon fill="#A80036" points="82,272.2888,86,282.2888,90,272.2888,86,276.2888" style="stroke: #A80036; stroke-width: 1.0;"/><line style="stroke: #A80036; stroke-width: 1.5;" x1="280" x2="280" y1="262.2888" y2="282.2888"/><polygon fill="#A80036" points="276,272.2888,280,282.2888,284,272.2888,280,276.2888" style="stroke: #A80036; stroke-width: 1.0;"/><line style="stroke: #A80036; stroke-width: 1.5;" x1="192" x2="192" y1="86.3887" y2="106.3887"/><polygon fill="#A80036" points="188,96.3887,192,106.3887,196,96.3887,192,100.3887" style="stroke: #A80036; stroke-width: 1.0;"/><line style="stroke: #A80036; stroke-width: 1.5;" x1="192" x2="192" y1="288.2888" y2="336.2888"/><line style="stroke: #A80036; stroke-width: 1.5;" x1="192" x2="388" y1="336.2888" y2="336.2888"/><polygon fill="#A80036" points="384,200.9973,388,190.9973,392,200.9973,388,196.9973" style="stroke: #A80036; stroke-width: 1.5;"/><line style="stroke: #A80036; stroke-width: 1.5;" x1="388" x2="388" y1="68.1943" y2="336.2888"/><line style="stroke: #A80036; stroke-width: 1.5;" x1="388" x2="238" y1="68.1943" y2="68.1943"/><polygon fill="#A80036" points="248,64.1943,238,68.1943,248,72.1943,244,68.1943" style="stroke: #A80036; stroke-width: 1.0;"/><line style="stroke: #A80036; stroke-width: 1.5;" x1="192" x2="192" y1="30" y2="50"/><polygon fill="#A80036" points="188,40,192,50,196,40,192,44" style="stroke: #A80036; stroke-width: 1.0;"/><!--
@startuml fuwuqi
start
repeat:等待TCP连接;
fork
if(来自拐杖？)then(true)
:保存发送过来的数据;
else(false)
endif
fork again
if(来自手机端？)then(true)
:把保存的数据发送过去;
else(false)
endif
fork end
repeat while
@enduml

PlantUML version 1.2019.09(Tue Aug 27 00:19:51 CST 2019)
(GPL source distribution)
Java Runtime: Java(TM) SE Runtime Environment
JVM: Java HotSpot(TM) 64-Bit Server VM
Java Version: 9.0.1+11
Operating System: Windows 10
OS Version: 10.0
Default Encoding: GBK
Language: zh
Country: CN
--></g></svg>