<?xml version="1.0" encoding="UTF-8" standalone="no"?><svg xmlns="http://www.w3.org/2000/svg" xmlns:xlink="http://www.w3.org/1999/xlink" contentScriptType="application/ecmascript" contentStyleType="text/css" height="758px" preserveAspectRatio="none" style="width:686px;height:758px;" version="1.1" viewBox="0 0 686 758" width="686px" zoomAndPan="magnify"><defs><filter height="300%" id="f1utvzr4hy3gs8" width="300%" x="-1" y="-1"><feGaussianBlur result="blurOut" stdDeviation="2.0"/><feColorMatrix in="blurOut" result="blurOut2" type="matrix" values="0 0 0 0 0 0 0 0 0 0 0 0 0 0 0 0 0 0 .4 0"/><feOffset dx="4.0" dy="4.0" in="blurOut2" result="blurOut3"/><feBlend in="SourceGraphic" in2="blurOut3" mode="normal"/></filter></defs><g><ellipse cx="322.5" cy="20" fill="#000000" filter="url(#f1utvzr4hy3gs8)" rx="10" ry="10" style="stroke: none; stroke-width: 1.0;"/><rect fill="#FEFECE" filter="url(#f1utvzr4hy3gs8)" height="36.3887" rx="12.5" ry="12.5" style="stroke: #A80036; stroke-width: 1.5;" width="128" x="258.5" y="106.3887"/><text fill="#000000" font-family="sans-serif" font-size="12" lengthAdjust="spacingAndGlyphs" textLength="108" x="268.5" y="130.1406">读取发送过来的数据</text><rect fill="#FEFECE" filter="url(#f1utvzr4hy3gs8)" height="36.3887" rx="12.5" ry="12.5" style="stroke: #A80036; stroke-width: 1.5;" width="116" x="264.5" y="162.7773"/><text fill="#000000" font-family="sans-serif" font-size="12" lengthAdjust="spacingAndGlyphs" textLength="96" x="274.5" y="186.5293">解析接收到的数据</text><rect fill="#000000" filter="url(#f1utvzr4hy3gs8)" height="6" rx="2.5" ry="2.5" style="stroke: #000000; stroke-width: 1.0;" width="638" x="10" y="219.166"/><rect fill="#FEFECE" filter="url(#f1utvzr4hy3gs8)" height="36.3887" rx="12.5" ry="12.5" style="stroke: #A80036; stroke-width: 1.5;" width="140" x="45.5" y="443.2119"/><text fill="#000000" font-family="sans-serif" font-size="12" lengthAdjust="spacingAndGlyphs" textLength="120" x="55.5" y="466.9639">根据ID更新相关的数据</text><polygon fill="#FEFECE" filter="url(#f1utvzr4hy3gs8)" points="38.5,393.7004,192.5,393.7004,204.5,405.7004,192.5,417.7004,38.5,417.7004,26.5,405.7004,38.5,393.7004" style="stroke: #A80036; stroke-width: 1.5;"/><text fill="#000000" font-family="sans-serif" font-size="11" lengthAdjust="spacingAndGlyphs" textLength="19" x="119.5" y="430.3064">true</text><text fill="#000000" font-family="sans-serif" font-size="11" lengthAdjust="spacingAndGlyphs" textLength="154" x="38.5" y="410.7949">相对已保存的数据是否有变化？</text><text fill="#000000" font-family="sans-serif" font-size="11" lengthAdjust="spacingAndGlyphs" textLength="24" x="204.5" y="403.2834">false</text><polygon fill="#FEFECE" filter="url(#f1utvzr4hy3gs8)" points="115.5,505.1121,127.5,517.1121,115.5,529.1121,103.5,517.1121,115.5,505.1121" style="stroke: #A80036; stroke-width: 1.5;"/><polygon fill="#FEFECE" filter="url(#f1utvzr4hy3gs8)" points="34,344.189,197,344.189,209,356.189,197,368.189,34,368.189,22,356.189,34,344.189" style="stroke: #A80036; stroke-width: 1.5;"/><text fill="#000000" font-family="sans-serif" font-size="11" lengthAdjust="spacingAndGlyphs" textLength="19" x="119.5" y="380.7949">true</text><text fill="#000000" font-family="sans-serif" font-size="11" lengthAdjust="spacingAndGlyphs" textLength="163" x="34" y="361.2834">相关的ID是否有记录在数据库中？</text><text fill="#000000" font-family="sans-serif" font-size="11" lengthAdjust="spacingAndGlyphs" textLength="24" x="209" y="353.772">false</text><polygon fill="#FEFECE" filter="url(#f1utvzr4hy3gs8)" points="115.5,554.6235,127.5,566.6235,115.5,578.6235,103.5,566.6235,115.5,554.6235" style="stroke: #A80036; stroke-width: 1.5;"/><polygon fill="#FEFECE" filter="url(#f1utvzr4hy3gs8)" points="71.5,294.6775,159.5,294.6775,171.5,306.6775,159.5,318.6775,71.5,318.6775,59.5,306.6775,71.5,294.6775" style="stroke: #A80036; stroke-width: 1.5;"/><text fill="#000000" font-family="sans-serif" font-size="11" lengthAdjust="spacingAndGlyphs" textLength="19" x="119.5" y="331.2834">true</text><text fill="#000000" font-family="sans-serif" font-size="11" lengthAdjust="spacingAndGlyphs" textLength="88" x="71.5" y="311.772">该数据是否合理？</text><text fill="#000000" font-family="sans-serif" font-size="11" lengthAdjust="spacingAndGlyphs" textLength="24" x="171.5" y="304.2605">false</text><polygon fill="#FEFECE" filter="url(#f1utvzr4hy3gs8)" points="115.5,604.135,127.5,616.135,115.5,628.135,103.5,616.135,115.5,604.135" style="stroke: #A80036; stroke-width: 1.5;"/><polygon fill="#FEFECE" filter="url(#f1utvzr4hy3gs8)" points="76.5,245.166,154.5,245.166,166.5,257.166,154.5,269.166,76.5,269.166,64.5,257.166,76.5,245.166" style="stroke: #A80036; stroke-width: 1.5;"/><text fill="#000000" font-family="sans-serif" font-size="11" lengthAdjust="spacingAndGlyphs" textLength="19" x="119.5" y="281.772">true</text><text fill="#000000" font-family="sans-serif" font-size="11" lengthAdjust="spacingAndGlyphs" textLength="78" x="76.5" y="262.2605">来自GSM模块？</text><text fill="#000000" font-family="sans-serif" font-size="11" lengthAdjust="spacingAndGlyphs" textLength="24" x="166.5" y="254.749">false</text><polygon fill="#FEFECE" filter="url(#f1utvzr4hy3gs8)" points="115.5,648.135,127.5,660.135,115.5,672.135,103.5,660.135,115.5,648.135" style="stroke: #A80036; stroke-width: 1.5;"/><rect fill="#FEFECE" filter="url(#f1utvzr4hy3gs8)" height="36.3887" rx="12.5" ry="12.5" style="stroke: #A80036; stroke-width: 1.5;" width="200" x="387.5" y="375.5176"/><text fill="#000000" font-family="sans-serif" font-size="12" lengthAdjust="spacingAndGlyphs" textLength="180" x="397.5" y="399.2695">根据ID从数据库中查询相关的数据</text><polygon fill="#FEFECE" filter="url(#f1utvzr4hy3gs8)" points="427,446.9063,548,446.9063,560,458.9063,548,470.9063,427,470.9063,415,458.9063,427,446.9063" style="stroke: #A80036; stroke-width: 1.5;"/><text fill="#000000" font-family="sans-serif" font-size="11" lengthAdjust="spacingAndGlyphs" textLength="121" x="427" y="464.0007">是否查询到了有效数据？</text><text fill="#000000" font-family="sans-serif" font-size="11" lengthAdjust="spacingAndGlyphs" textLength="19" x="396" y="456.4893">true</text><text fill="#000000" font-family="sans-serif" font-size="11" lengthAdjust="spacingAndGlyphs" textLength="24" x="560" y="456.4893">false</text><rect fill="#FEFECE" filter="url(#f1utvzr4hy3gs8)" height="36.3887" rx="12.5" ry="12.5" style="stroke: #A80036; stroke-width: 1.5;" width="152" x="329" y="480.9063"/><text fill="#000000" font-family="sans-serif" font-size="12" lengthAdjust="spacingAndGlyphs" textLength="132" x="339" y="504.6582">把查询到的数据发送过去</text><rect fill="#FEFECE" filter="url(#f1utvzr4hy3gs8)" height="36.3887" rx="12.5" ry="12.5" style="stroke: #A80036; stroke-width: 1.5;" width="96" x="522" y="480.9063"/><text fill="#000000" font-family="sans-serif" font-size="12" lengthAdjust="spacingAndGlyphs" textLength="76" x="532" y="504.6582">发送“null”过去</text><polygon fill="#FEFECE" filter="url(#f1utvzr4hy3gs8)" points="487.5,523.2949,499.5,535.2949,487.5,547.2949,475.5,535.2949,487.5,523.2949" style="stroke: #A80036; stroke-width: 1.5;"/><polygon fill="#FEFECE" filter="url(#f1utvzr4hy3gs8)" points="443.5,326.0061,531.5,326.0061,543.5,338.0061,531.5,350.0061,443.5,350.0061,431.5,338.0061,443.5,326.0061" style="stroke: #A80036; stroke-width: 1.5;"/><text fill="#000000" font-family="sans-serif" font-size="11" lengthAdjust="spacingAndGlyphs" textLength="19" x="491.5" y="362.6121">true</text><text fill="#000000" font-family="sans-serif" font-size="11" lengthAdjust="spacingAndGlyphs" textLength="88" x="443.5" y="343.1006">来自手机应用端？</text><text fill="#000000" font-family="sans-serif" font-size="11" lengthAdjust="spacingAndGlyphs" textLength="24" x="543.5" y="335.5891">false</text><polygon fill="#FEFECE" filter="url(#f1utvzr4hy3gs8)" points="487.5,572.8064,499.5,584.8064,487.5,596.8064,475.5,584.8064,487.5,572.8064" style="stroke: #A80036; stroke-width: 1.5;"/><rect fill="#000000" filter="url(#f1utvzr4hy3gs8)" height="6" rx="2.5" ry="2.5" style="stroke: #000000; stroke-width: 1.0;" width="638" x="10" y="692.135"/><rect fill="#FEFECE" filter="url(#f1utvzr4hy3gs8)" height="36.3887" rx="12.5" ry="12.5" style="stroke: #A80036; stroke-width: 1.5;" width="92" x="276.5" y="50"/><text fill="#000000" font-family="sans-serif" font-size="12" lengthAdjust="spacingAndGlyphs" textLength="72" x="286.5" y="73.752">等待TCP连接</text><line style="stroke: #A80036; stroke-width: 1.5;" x1="322.5" x2="322.5" y1="142.7773" y2="162.7773"/><polygon fill="#A80036" points="318.5,152.7773,322.5,162.7773,326.5,152.7773,322.5,156.7773" style="stroke: #A80036; stroke-width: 1.0;"/><line style="stroke: #A80036; stroke-width: 1.5;" x1="115.5" x2="115.5" y1="417.7004" y2="443.2119"/><polygon fill="#A80036" points="111.5,433.2119,115.5,443.2119,119.5,433.2119,115.5,437.2119" style="stroke: #A80036; stroke-width: 1.0;"/><line style="stroke: #A80036; stroke-width: 1.5;" x1="204.5" x2="216.5" y1="405.7004" y2="405.7004"/><polygon fill="#A80036" points="212.5,451.4063,216.5,461.4063,220.5,451.4063,216.5,455.4063" style="stroke: #A80036; stroke-width: 1.5;"/><line style="stroke: #A80036; stroke-width: 1.5;" x1="216.5" x2="216.5" y1="405.7004" y2="517.1121"/><line style="stroke: #A80036; stroke-width: 1.5;" x1="216.5" x2="127.5" y1="517.1121" y2="517.1121"/><polygon fill="#A80036" points="137.5,513.1121,127.5,517.1121,137.5,521.1121,133.5,517.1121" style="stroke: #A80036; stroke-width: 1.0;"/><line style="stroke: #A80036; stroke-width: 1.5;" x1="115.5" x2="115.5" y1="479.6006" y2="505.1121"/><polygon fill="#A80036" points="111.5,495.1121,115.5,505.1121,119.5,495.1121,115.5,499.1121" style="stroke: #A80036; stroke-width: 1.0;"/><line style="stroke: #A80036; stroke-width: 1.5;" x1="115.5" x2="115.5" y1="368.189" y2="393.7004"/><polygon fill="#A80036" points="111.5,383.7004,115.5,393.7004,119.5,383.7004,115.5,387.7004" style="stroke: #A80036; stroke-width: 1.0;"/><line style="stroke: #A80036; stroke-width: 1.5;" x1="209" x2="226.5" y1="356.189" y2="356.189"/><polygon fill="#A80036" points="222.5,451.4063,226.5,461.4063,230.5,451.4063,226.5,455.4063" style="stroke: #A80036; stroke-width: 1.5;"/><line style="stroke: #A80036; stroke-width: 1.5;" x1="226.5" x2="226.5" y1="356.189" y2="566.6235"/><line style="stroke: #A80036; stroke-width: 1.5;" x1="226.5" x2="127.5" y1="566.6235" y2="566.6235"/><polygon fill="#A80036" points="137.5,562.6235,127.5,566.6235,137.5,570.6235,133.5,566.6235" style="stroke: #A80036; stroke-width: 1.0;"/><line style="stroke: #A80036; stroke-width: 1.5;" x1="115.5" x2="115.5" y1="529.1121" y2="554.6235"/><polygon fill="#A80036" points="111.5,544.6235,115.5,554.6235,119.5,544.6235,115.5,548.6235" style="stroke: #A80036; stroke-width: 1.0;"/><line style="stroke: #A80036; stroke-width: 1.5;" x1="115.5" x2="115.5" y1="318.6775" y2="344.189"/><polygon fill="#A80036" points="111.5,334.189,115.5,344.189,119.5,334.189,115.5,338.189" style="stroke: #A80036; stroke-width: 1.0;"/><line style="stroke: #A80036; stroke-width: 1.5;" x1="171.5" x2="247" y1="306.6775" y2="306.6775"/><polygon fill="#A80036" points="243,451.4063,247,461.4063,251,451.4063,247,455.4063" style="stroke: #A80036; stroke-width: 1.5;"/><line style="stroke: #A80036; stroke-width: 1.5;" x1="247" x2="247" y1="306.6775" y2="616.135"/><line style="stroke: #A80036; stroke-width: 1.5;" x1="247" x2="127.5" y1="616.135" y2="616.135"/><polygon fill="#A80036" points="137.5,612.135,127.5,616.135,137.5,620.135,133.5,616.135" style="stroke: #A80036; stroke-width: 1.0;"/><line style="stroke: #A80036; stroke-width: 1.5;" x1="115.5" x2="115.5" y1="578.6235" y2="604.135"/><polygon fill="#A80036" points="111.5,594.135,115.5,604.135,119.5,594.135,115.5,598.135" style="stroke: #A80036; stroke-width: 1.0;"/><line style="stroke: #A80036; stroke-width: 1.5;" x1="115.5" x2="115.5" y1="269.166" y2="294.6775"/><polygon fill="#A80036" points="111.5,284.6775,115.5,294.6775,119.5,284.6775,115.5,288.6775" style="stroke: #A80036; stroke-width: 1.0;"/><line style="stroke: #A80036; stroke-width: 1.5;" x1="166.5" x2="269" y1="257.166" y2="257.166"/><polygon fill="#A80036" points="265,451.4063,269,461.4063,273,451.4063,269,455.4063" style="stroke: #A80036; stroke-width: 1.5;"/><line style="stroke: #A80036; stroke-width: 1.5;" x1="269" x2="269" y1="257.166" y2="660.135"/><line style="stroke: #A80036; stroke-width: 1.5;" x1="269" x2="127.5" y1="660.135" y2="660.135"/><polygon fill="#A80036" points="137.5,656.135,127.5,660.135,137.5,664.135,133.5,660.135" style="stroke: #A80036; stroke-width: 1.0;"/><line style="stroke: #A80036; stroke-width: 1.5;" x1="115.5" x2="115.5" y1="628.135" y2="648.135"/><polygon fill="#A80036" points="111.5,638.135,115.5,648.135,119.5,638.135,115.5,642.135" style="stroke: #A80036; stroke-width: 1.0;"/><line style="stroke: #A80036; stroke-width: 1.5;" x1="415" x2="405" y1="458.9063" y2="458.9063"/><line style="stroke: #A80036; stroke-width: 1.5;" x1="405" x2="405" y1="458.9063" y2="480.9063"/><polygon fill="#A80036" points="401,470.9063,405,480.9063,409,470.9063,405,474.9063" style="stroke: #A80036; stroke-width: 1.0;"/><line style="stroke: #A80036; stroke-width: 1.5;" x1="560" x2="570" y1="458.9063" y2="458.9063"/><line style="stroke: #A80036; stroke-width: 1.5;" x1="570" x2="570" y1="458.9063" y2="480.9063"/><polygon fill="#A80036" points="566,470.9063,570,480.9063,574,470.9063,570,474.9063" style="stroke: #A80036; stroke-width: 1.0;"/><line style="stroke: #A80036; stroke-width: 1.5;" x1="405" x2="405" y1="517.2949" y2="535.2949"/><line style="stroke: #A80036; stroke-width: 1.5;" x1="405" x2="475.5" y1="535.2949" y2="535.2949"/><polygon fill="#A80036" points="465.5,531.2949,475.5,535.2949,465.5,539.2949,469.5,535.2949" style="stroke: #A80036; stroke-width: 1.0;"/><line style="stroke: #A80036; stroke-width: 1.5;" x1="570" x2="570" y1="517.2949" y2="535.2949"/><line style="stroke: #A80036; stroke-width: 1.5;" x1="570" x2="499.5" y1="535.2949" y2="535.2949"/><polygon fill="#A80036" points="509.5,531.2949,499.5,535.2949,509.5,539.2949,505.5,535.2949" style="stroke: #A80036; stroke-width: 1.0;"/><line style="stroke: #A80036; stroke-width: 1.5;" x1="487.5" x2="487.5" y1="411.9063" y2="446.9063"/><polygon fill="#A80036" points="483.5,436.9063,487.5,446.9063,491.5,436.9063,487.5,440.9063" style="stroke: #A80036; stroke-width: 1.0;"/><line style="stroke: #A80036; stroke-width: 1.5;" x1="487.5" x2="487.5" y1="350.0061" y2="375.5176"/><polygon fill="#A80036" points="483.5,365.5176,487.5,375.5176,491.5,365.5176,487.5,369.5176" style="stroke: #A80036; stroke-width: 1.0;"/><line style="stroke: #A80036; stroke-width: 1.5;" x1="543.5" x2="632" y1="338.0061" y2="338.0061"/><polygon fill="#A80036" points="628,451.4063,632,461.4063,636,451.4063,632,455.4063" style="stroke: #A80036; stroke-width: 1.5;"/><line style="stroke: #A80036; stroke-width: 1.5;" x1="632" x2="632" y1="338.0061" y2="584.8064"/><line style="stroke: #A80036; stroke-width: 1.5;" x1="632" x2="499.5" y1="584.8064" y2="584.8064"/><polygon fill="#A80036" points="509.5,580.8064,499.5,584.8064,509.5,588.8064,505.5,584.8064" style="stroke: #A80036; stroke-width: 1.0;"/><line style="stroke: #A80036; stroke-width: 1.5;" x1="487.5" x2="487.5" y1="547.2949" y2="572.8064"/><polygon fill="#A80036" points="483.5,562.8064,487.5,572.8064,491.5,562.8064,487.5,566.8064" style="stroke: #A80036; stroke-width: 1.0;"/><line style="stroke: #A80036; stroke-width: 1.5;" x1="115.5" x2="115.5" y1="225.166" y2="245.166"/><polygon fill="#A80036" points="111.5,235.166,115.5,245.166,119.5,235.166,115.5,239.166" style="stroke: #A80036; stroke-width: 1.0;"/><line style="stroke: #A80036; stroke-width: 1.5;" x1="487.5" x2="487.5" y1="225.166" y2="326.0061"/><polygon fill="#A80036" points="483.5,316.0061,487.5,326.0061,491.5,316.0061,487.5,320.0061" style="stroke: #A80036; stroke-width: 1.0;"/><line style="stroke: #A80036; stroke-width: 1.5;" x1="115.5" x2="115.5" y1="672.135" y2="692.135"/><polygon fill="#A80036" points="111.5,682.135,115.5,692.135,119.5,682.135,115.5,686.135" style="stroke: #A80036; stroke-width: 1.0;"/><line style="stroke: #A80036; stroke-width: 1.5;" x1="487.5" x2="487.5" y1="596.8064" y2="692.135"/><polygon fill="#A80036" points="483.5,682.135,487.5,692.135,491.5,682.135,487.5,686.135" style="stroke: #A80036; stroke-width: 1.0;"/><line style="stroke: #A80036; stroke-width: 1.5;" x1="322.5" x2="322.5" y1="199.166" y2="219.166"/><polygon fill="#A80036" points="318.5,209.166,322.5,219.166,326.5,209.166,322.5,213.166" style="stroke: #A80036; stroke-width: 1.0;"/><line style="stroke: #A80036; stroke-width: 1.5;" x1="322.5" x2="322.5" y1="86.3887" y2="106.3887"/><polygon fill="#A80036" points="318.5,96.3887,322.5,106.3887,326.5,96.3887,322.5,100.3887" style="stroke: #A80036; stroke-width: 1.0;"/><line style="stroke: #A80036; stroke-width: 1.5;" x1="322.5" x2="322.5" y1="698.135" y2="746.135"/><line style="stroke: #A80036; stroke-width: 1.5;" x1="322.5" x2="660" y1="746.135" y2="746.135"/><polygon fill="#A80036" points="656,390.9204,660,380.9204,664,390.9204,660,386.9204" style="stroke: #A80036; stroke-width: 1.5;"/><line style="stroke: #A80036; stroke-width: 1.5;" x1="660" x2="660" y1="68.1943" y2="746.135"/><line style="stroke: #A80036; stroke-width: 1.5;" x1="660" x2="368.5" y1="68.1943" y2="68.1943"/><polygon fill="#A80036" points="378.5,64.1943,368.5,68.1943,378.5,72.1943,374.5,68.1943" style="stroke: #A80036; stroke-width: 1.0;"/><line style="stroke: #A80036; stroke-width: 1.5;" x1="322.5" x2="322.5" y1="30" y2="50"/><polygon fill="#A80036" points="318.5,40,322.5,50,326.5,40,322.5,44" style="stroke: #A80036; stroke-width: 1.0;"/><!--
@startuml fuwuqi
start
repeat:等待TCP连接;
:读取发送过来的数据;
:解析接收到的数据;
fork
if(来自GSM模块？)then(true)
if(该数据是否合理？)then(true)
if(相关的ID是否有记录在数据库中？)then(true)
if(相对已保存的数据是否有变化？)then(true)
:根据ID更新相关的数据;
else(false)
endif
else(false)
endif
else(false)
endif
else(false)
endif
fork again
if(来自手机应用端？)then(true)
:根据ID从数据库中查询相关的数据;
if(是否查询到了有效数据？)then(true)
:把查询到的数据发送过去;
else(false)
:发送“null”过去;
endif
else(false)
endif
fork end
repeat while
@enduml

PlantUML version 1.2019.09(Tue Aug 27 00:19:51 CST 2019)
(GPL source distribution)
Java Runtime: Java(TM) SE Runtime Environment
JVM: Java HotSpot(TM) 64-Bit Server VM
Java Version: 9.0.1+11
Operating System: Windows 10
OS Version: 10.0
Default Encoding: GBK
Language: zh
Country: CN
--></g></svg>