<?xml version="1.0" encoding="UTF-8" standalone="no"?><svg xmlns="http://www.w3.org/2000/svg" xmlns:xlink="http://www.w3.org/1999/xlink" contentScriptType="application/ecmascript" contentStyleType="text/css" height="367px" preserveAspectRatio="none" style="width:245px;height:367px;" version="1.1" viewBox="0 0 245 367" width="245px" zoomAndPan="magnify"><defs><filter height="300%" id="fmip84w4jhled" width="300%" x="-1" y="-1"><feGaussianBlur result="blurOut" stdDeviation="2.0"/><feColorMatrix in="blurOut" result="blurOut2" type="matrix" values="0 0 0 0 0 0 0 0 0 0 0 0 0 0 0 0 0 0 .4 0"/><feOffset dx="4.0" dy="4.0" in="blurOut2" result="blurOut3"/><feBlend in="SourceGraphic" in2="blurOut3" mode="normal"/></filter></defs><g><ellipse cx="107.5" cy="20" fill="#000000" filter="url(#fmip84w4jhled)" rx="10" ry="10" style="stroke: none; stroke-width: 1.0;"/><rect fill="#FEFECE" filter="url(#fmip84w4jhled)" height="36.3887" rx="12.5" ry="12.5" style="stroke: #A80036; stroke-width: 1.5;" width="113" x="51" y="94"/><text fill="#000000" font-family="sans-serif" font-size="12" lengthAdjust="spacingAndGlyphs" textLength="93" x="61" y="117.752">发送第n条AT指令</text><polygon fill="#FEFECE" filter="url(#fmip84w4jhled)" points="52.5,150.3887,162.5,150.3887,174.5,162.3887,162.5,174.3887,52.5,174.3887,40.5,162.3887,52.5,150.3887" style="stroke: #A80036; stroke-width: 1.5;"/><text fill="#000000" font-family="sans-serif" font-size="11" lengthAdjust="spacingAndGlyphs" textLength="110" x="52.5" y="167.4832">完成了一次数据发送？</text><text fill="#000000" font-family="sans-serif" font-size="11" lengthAdjust="spacingAndGlyphs" textLength="19" x="21.5" y="159.9717">true</text><text fill="#000000" font-family="sans-serif" font-size="11" lengthAdjust="spacingAndGlyphs" textLength="24" x="174.5" y="159.9717">false</text><rect fill="#FEFECE" filter="url(#fmip84w4jhled)" height="36.3887" rx="12.5" ry="12.5" style="stroke: #A80036; stroke-width: 1.5;" width="41" x="10" y="184.3887"/><text fill="#000000" font-family="sans-serif" font-size="12" lengthAdjust="spacingAndGlyphs" textLength="21" x="20" y="208.1406">n=0</text><rect fill="#FEFECE" filter="url(#fmip84w4jhled)" height="36.3887" rx="12.5" ry="12.5" style="stroke: #A80036; stroke-width: 1.5;" width="41" x="164" y="184.3887"/><text fill="#000000" font-family="sans-serif" font-size="12" lengthAdjust="spacingAndGlyphs" textLength="21" x="174" y="208.1406">n++</text><polygon fill="#FEFECE" filter="url(#fmip84w4jhled)" points="107.5,226.7773,119.5,238.7773,107.5,250.7773,95.5,238.7773,107.5,226.7773" style="stroke: #A80036; stroke-width: 1.5;"/><rect fill="#FEFECE" filter="url(#fmip84w4jhled)" height="36.3887" rx="12.5" ry="12.5" style="stroke: #A80036; stroke-width: 1.5;" width="104" x="55.5" y="270.7773"/><text fill="#000000" font-family="sans-serif" font-size="12" lengthAdjust="spacingAndGlyphs" textLength="84" x="65.5" y="294.5293">间隔一定的时间</text><polygon fill="#FEFECE" filter="url(#fmip84w4jhled)" points="107.5,50,119.5,62,107.5,74,95.5,62,107.5,50" style="stroke: #A80036; stroke-width: 1.5;"/><line style="stroke: #A80036; stroke-width: 1.5;" x1="40.5" x2="30.5" y1="162.3887" y2="162.3887"/><line style="stroke: #A80036; stroke-width: 1.5;" x1="30.5" x2="30.5" y1="162.3887" y2="184.3887"/><polygon fill="#A80036" points="26.5,174.3887,30.5,184.3887,34.5,174.3887,30.5,178.3887" style="stroke: #A80036; stroke-width: 1.0;"/><line style="stroke: #A80036; stroke-width: 1.5;" x1="174.5" x2="184.5" y1="162.3887" y2="162.3887"/><line style="stroke: #A80036; stroke-width: 1.5;" x1="184.5" x2="184.5" y1="162.3887" y2="184.3887"/><polygon fill="#A80036" points="180.5,174.3887,184.5,184.3887,188.5,174.3887,184.5,178.3887" style="stroke: #A80036; stroke-width: 1.0;"/><line style="stroke: #A80036; stroke-width: 1.5;" x1="30.5" x2="30.5" y1="220.7773" y2="238.7773"/><line style="stroke: #A80036; stroke-width: 1.5;" x1="30.5" x2="95.5" y1="238.7773" y2="238.7773"/><polygon fill="#A80036" points="85.5,234.7773,95.5,238.7773,85.5,242.7773,89.5,238.7773" style="stroke: #A80036; stroke-width: 1.0;"/><line style="stroke: #A80036; stroke-width: 1.5;" x1="184.5" x2="184.5" y1="220.7773" y2="238.7773"/><line style="stroke: #A80036; stroke-width: 1.5;" x1="184.5" x2="119.5" y1="238.7773" y2="238.7773"/><polygon fill="#A80036" points="129.5,234.7773,119.5,238.7773,129.5,242.7773,125.5,238.7773" style="stroke: #A80036; stroke-width: 1.0;"/><line style="stroke: #A80036; stroke-width: 1.5;" x1="107.5" x2="107.5" y1="130.3887" y2="150.3887"/><polygon fill="#A80036" points="103.5,140.3887,107.5,150.3887,111.5,140.3887,107.5,144.3887" style="stroke: #A80036; stroke-width: 1.0;"/><line style="stroke: #A80036; stroke-width: 1.5;" x1="107.5" x2="107.5" y1="250.7773" y2="270.7773"/><polygon fill="#A80036" points="103.5,260.7773,107.5,270.7773,111.5,260.7773,107.5,264.7773" style="stroke: #A80036; stroke-width: 1.0;"/><line style="stroke: #A80036; stroke-width: 1.5;" x1="107.5" x2="107.5" y1="74" y2="94"/><polygon fill="#A80036" points="103.5,84,107.5,94,111.5,84,107.5,88" style="stroke: #A80036; stroke-width: 1.0;"/><line style="stroke: #A80036; stroke-width: 1.5;" x1="107.5" x2="107.5" y1="307.166" y2="355.166"/><line style="stroke: #A80036; stroke-width: 1.5;" x1="107.5" x2="219" y1="355.166" y2="355.166"/><polygon fill="#A80036" points="215,204.583,219,194.583,223,204.583,219,200.583" style="stroke: #A80036; stroke-width: 1.5;"/><line style="stroke: #A80036; stroke-width: 1.5;" x1="219" x2="219" y1="62" y2="355.166"/><line style="stroke: #A80036; stroke-width: 1.5;" x1="219" x2="119.5" y1="62" y2="62"/><polygon fill="#A80036" points="129.5,58,119.5,62,129.5,66,125.5,62" style="stroke: #A80036; stroke-width: 1.0;"/><line style="stroke: #A80036; stroke-width: 1.5;" x1="107.5" x2="107.5" y1="30" y2="50"/><polygon fill="#A80036" points="103.5,40,107.5,50,111.5,40,107.5,44" style="stroke: #A80036; stroke-width: 1.0;"/><!--
@startuml gsm
start
repeat
:发送第n条AT指令;
if(完成了一次数据发送？) then(true)
:n=0;
else(false)
:n++;
endif
:间隔一定的时间;
repeat while
@enduml

PlantUML version 1.2019.09(Tue Aug 27 00:19:51 CST 2019)
(GPL source distribution)
Java Runtime: Java(TM) SE Runtime Environment
JVM: Java HotSpot(TM) 64-Bit Server VM
Java Version: 9.0.1+11
Operating System: Windows 10
OS Version: 10.0
Default Encoding: GBK
Language: zh
Country: CN
--></g></svg>