<?xml version="1.0" encoding="UTF-8" standalone="no"?><svg xmlns="http://www.w3.org/2000/svg" xmlns:xlink="http://www.w3.org/1999/xlink" contentScriptType="application/ecmascript" contentStyleType="text/css" height="645px" preserveAspectRatio="none" style="width:367px;height:645px;" version="1.1" viewBox="0 0 367 645" width="367px" zoomAndPan="magnify"><defs><filter height="300%" id="fphjbj01237t5" width="300%" x="-1" y="-1"><feGaussianBlur result="blurOut" stdDeviation="2.0"/><feColorMatrix in="blurOut" result="blurOut2" type="matrix" values="0 0 0 0 0 0 0 0 0 0 0 0 0 0 0 0 0 0 .4 0"/><feOffset dx="4.0" dy="4.0" in="blurOut2" result="blurOut3"/><feBlend in="SourceGraphic" in2="blurOut3" mode="normal"/></filter></defs><g><ellipse cx="132" cy="20" fill="#000000" filter="url(#fphjbj01237t5)" rx="10" ry="10" style="stroke: none; stroke-width: 1.0;"/><rect fill="#FEFECE" filter="url(#fphjbj01237t5)" height="36.3887" rx="12.5" ry="12.5" style="stroke: #A80036; stroke-width: 1.5;" width="116" x="74" y="128.8171"/><text fill="#000000" font-family="sans-serif" font-size="12" lengthAdjust="spacingAndGlyphs" textLength="96" x="84" y="152.5691">获取返回脉冲宽度</text><rect fill="#FEFECE" filter="url(#fphjbj01237t5)" height="36.3887" rx="12.5" ry="12.5" style="stroke: #A80036; stroke-width: 1.5;" width="116" x="74" y="185.2058"/><text fill="#000000" font-family="sans-serif" font-size="12" lengthAdjust="spacingAndGlyphs" textLength="96" x="84" y="208.9578">计算与障碍物距离</text><polygon fill="#FEFECE" filter="url(#fphjbj01237t5)" points="82.5,291.106,181.5,291.106,193.5,303.106,181.5,315.106,82.5,315.106,70.5,303.106,82.5,291.106" style="stroke: #A80036; stroke-width: 1.5;"/><text fill="#000000" font-family="sans-serif" font-size="11" lengthAdjust="spacingAndGlyphs" textLength="99" x="82.5" y="308.2004">数据有较大的变化？</text><text fill="#000000" font-family="sans-serif" font-size="11" lengthAdjust="spacingAndGlyphs" textLength="19" x="51.5" y="300.689">true</text><text fill="#000000" font-family="sans-serif" font-size="11" lengthAdjust="spacingAndGlyphs" textLength="24" x="193.5" y="300.689">false</text><rect fill="#FEFECE" filter="url(#fphjbj01237t5)" height="36.3887" rx="12.5" ry="12.5" style="stroke: #A80036; stroke-width: 1.5;" width="101" x="10" y="325.106"/><text fill="#000000" font-family="sans-serif" font-size="12" lengthAdjust="spacingAndGlyphs" textLength="81" x="20" y="348.8579">n=0，更新数据</text><rect fill="#FEFECE" filter="url(#fphjbj01237t5)" height="36.3887" rx="12.5" ry="12.5" style="stroke: #A80036; stroke-width: 1.5;" width="41" x="183" y="325.106"/><text fill="#000000" font-family="sans-serif" font-size="12" lengthAdjust="spacingAndGlyphs" textLength="21" x="193" y="348.8579">n++</text><polygon fill="#FEFECE" filter="url(#fphjbj01237t5)" points="132,367.4946,144,379.4946,132,391.4946,120,379.4946,132,367.4946" style="stroke: #A80036; stroke-width: 1.5;"/><rect fill="#FEFECE" filter="url(#fphjbj01237t5)" height="36.3887" rx="12.5" ry="12.5" style="stroke: #A80036; stroke-width: 1.5;" width="92" x="86" y="461.0061"/><text fill="#000000" font-family="sans-serif" font-size="12" lengthAdjust="spacingAndGlyphs" textLength="72" x="96" y="484.7581">播放语音提示</text><polygon fill="#FEFECE" filter="url(#fphjbj01237t5)" points="82.5,411.4946,181.5,411.4946,193.5,423.4946,181.5,435.4946,82.5,435.4946,70.5,423.4946,82.5,411.4946" style="stroke: #A80036; stroke-width: 1.5;"/><text fill="#000000" font-family="sans-serif" font-size="11" lengthAdjust="spacingAndGlyphs" textLength="19" x="136" y="448.1006">true</text><text fill="#000000" font-family="sans-serif" font-size="11" lengthAdjust="spacingAndGlyphs" textLength="99" x="82.5" y="428.5891">n&gt;=2 &amp;&amp; 新的数据？</text><text fill="#000000" font-family="sans-serif" font-size="11" lengthAdjust="spacingAndGlyphs" textLength="24" x="193.5" y="421.0776">false</text><polygon fill="#FEFECE" filter="url(#fphjbj01237t5)" points="132,517.3948,144,529.3948,132,541.3948,120,529.3948,132,517.3948" style="stroke: #A80036; stroke-width: 1.5;"/><polygon fill="#FEFECE" filter="url(#fphjbj01237t5)" points="104.5,241.5945,159.5,241.5945,171.5,253.5945,159.5,265.5945,104.5,265.5945,92.5,253.5945,104.5,241.5945" style="stroke: #A80036; stroke-width: 1.5;"/><text fill="#000000" font-family="sans-serif" font-size="11" lengthAdjust="spacingAndGlyphs" textLength="19" x="136" y="278.2004">true</text><text fill="#000000" font-family="sans-serif" font-size="11" lengthAdjust="spacingAndGlyphs" textLength="55" x="104.5" y="258.689">有障碍物？</text><text fill="#000000" font-family="sans-serif" font-size="11" lengthAdjust="spacingAndGlyphs" textLength="24" x="171.5" y="251.1775">false</text><polygon fill="#FEFECE" filter="url(#fphjbj01237t5)" points="132,561.3948,144,573.3948,132,585.3948,120,573.3948,132,561.3948" style="stroke: #A80036; stroke-width: 1.5;"/><rect fill="#FEFECE" filter="url(#fphjbj01237t5)" height="36.3887" rx="12.5" ry="12.5" style="stroke: #A80036; stroke-width: 1.5;" width="152" x="56" y="50"/><text fill="#000000" font-family="sans-serif" font-size="12" lengthAdjust="spacingAndGlyphs" textLength="132" x="66" y="73.752">向测距模块发送驱动脉冲</text><rect fill="#FEFECE" filter="url(#fphjbj01237t5)" height="36.3887" rx="12.5" ry="12.5" style="stroke: #A80036; stroke-width: 1.5;" width="104" x="252" y="318.7288"/><text fill="#000000" font-family="sans-serif" font-size="12" lengthAdjust="spacingAndGlyphs" textLength="84" x="262" y="342.4807">间隔一定的时间</text><line style="stroke: #A80036; stroke-width: 1.5;" x1="132" x2="132" y1="165.2058" y2="185.2058"/><polygon fill="#A80036" points="128,175.2058,132,185.2058,136,175.2058,132,179.2058" style="stroke: #A80036; stroke-width: 1.0;"/><line style="stroke: #A80036; stroke-width: 1.5;" x1="70.5" x2="60.5" y1="303.106" y2="303.106"/><line style="stroke: #A80036; stroke-width: 1.5;" x1="60.5" x2="60.5" y1="303.106" y2="325.106"/><polygon fill="#A80036" points="56.5,315.106,60.5,325.106,64.5,315.106,60.5,319.106" style="stroke: #A80036; stroke-width: 1.0;"/><line style="stroke: #A80036; stroke-width: 1.5;" x1="193.5" x2="203.5" y1="303.106" y2="303.106"/><line style="stroke: #A80036; stroke-width: 1.5;" x1="203.5" x2="203.5" y1="303.106" y2="325.106"/><polygon fill="#A80036" points="199.5,315.106,203.5,325.106,207.5,315.106,203.5,319.106" style="stroke: #A80036; stroke-width: 1.0;"/><line style="stroke: #A80036; stroke-width: 1.5;" x1="60.5" x2="60.5" y1="361.4946" y2="379.4946"/><line style="stroke: #A80036; stroke-width: 1.5;" x1="60.5" x2="120" y1="379.4946" y2="379.4946"/><polygon fill="#A80036" points="110,375.4946,120,379.4946,110,383.4946,114,379.4946" style="stroke: #A80036; stroke-width: 1.0;"/><line style="stroke: #A80036; stroke-width: 1.5;" x1="203.5" x2="203.5" y1="361.4946" y2="379.4946"/><line style="stroke: #A80036; stroke-width: 1.5;" x1="203.5" x2="144" y1="379.4946" y2="379.4946"/><polygon fill="#A80036" points="154,375.4946,144,379.4946,154,383.4946,150,379.4946" style="stroke: #A80036; stroke-width: 1.0;"/><line style="stroke: #A80036; stroke-width: 1.5;" x1="132" x2="132" y1="435.4946" y2="461.0061"/><polygon fill="#A80036" points="128,451.0061,132,461.0061,136,451.0061,132,455.0061" style="stroke: #A80036; stroke-width: 1.0;"/><line style="stroke: #A80036; stroke-width: 1.5;" x1="193.5" x2="205.5" y1="423.4946" y2="423.4946"/><polygon fill="#A80036" points="201.5,469.2004,205.5,479.2004,209.5,469.2004,205.5,473.2004" style="stroke: #A80036; stroke-width: 1.5;"/><line style="stroke: #A80036; stroke-width: 1.5;" x1="205.5" x2="205.5" y1="423.4946" y2="529.3948"/><line style="stroke: #A80036; stroke-width: 1.5;" x1="205.5" x2="144" y1="529.3948" y2="529.3948"/><polygon fill="#A80036" points="154,525.3948,144,529.3948,154,533.3948,150,529.3948" style="stroke: #A80036; stroke-width: 1.0;"/><line style="stroke: #A80036; stroke-width: 1.5;" x1="132" x2="132" y1="497.3948" y2="517.3948"/><polygon fill="#A80036" points="128,507.3948,132,517.3948,136,507.3948,132,511.3948" style="stroke: #A80036; stroke-width: 1.0;"/><line style="stroke: #A80036; stroke-width: 1.5;" x1="132" x2="132" y1="391.4946" y2="411.4946"/><polygon fill="#A80036" points="128,401.4946,132,411.4946,136,401.4946,132,405.4946" style="stroke: #A80036; stroke-width: 1.0;"/><line style="stroke: #A80036; stroke-width: 1.5;" x1="132" x2="132" y1="265.5945" y2="291.106"/><polygon fill="#A80036" points="128,281.106,132,291.106,136,281.106,132,285.106" style="stroke: #A80036; stroke-width: 1.0;"/><line style="stroke: #A80036; stroke-width: 1.5;" x1="171.5" x2="238" y1="253.5945" y2="253.5945"/><polygon fill="#A80036" points="234,401.5061,238,411.5061,242,401.5061,238,405.5061" style="stroke: #A80036; stroke-width: 1.5;"/><line style="stroke: #A80036; stroke-width: 1.5;" x1="238" x2="238" y1="253.5945" y2="573.3948"/><line style="stroke: #A80036; stroke-width: 1.5;" x1="238" x2="144" y1="573.3948" y2="573.3948"/><polygon fill="#A80036" points="154,569.3948,144,573.3948,154,577.3948,150,573.3948" style="stroke: #A80036; stroke-width: 1.0;"/><line style="stroke: #A80036; stroke-width: 1.5;" x1="132" x2="132" y1="541.3948" y2="561.3948"/><polygon fill="#A80036" points="128,551.3948,132,561.3948,136,551.3948,132,555.3948" style="stroke: #A80036; stroke-width: 1.0;"/><line style="stroke: #A80036; stroke-width: 1.5;" x1="132" x2="132" y1="221.5945" y2="241.5945"/><polygon fill="#A80036" points="128,231.5945,132,241.5945,136,231.5945,132,235.5945" style="stroke: #A80036; stroke-width: 1.0;"/><line style="stroke: #A80036; stroke-width: 1.5;" x1="132" x2="132" y1="86.3887" y2="128.8171"/><polygon fill="#A80036" points="128,118.8171,132,128.8171,136,118.8171,132,122.8171" style="stroke: #A80036; stroke-width: 1.0;"/><text fill="#000000" font-family="sans-serif" font-size="11" lengthAdjust="spacingAndGlyphs" textLength="22" x="136" y="109.9116">捕获</text><line style="stroke: #A80036; stroke-width: 1.5;" x1="132" x2="132" y1="585.3948" y2="633.3948"/><line style="stroke: #A80036; stroke-width: 1.5;" x1="132" x2="304" y1="633.3948" y2="633.3948"/><line style="stroke: #A80036; stroke-width: 1.5;" x1="304" x2="304" y1="355.1174" y2="633.3948"/><polygon fill="#A80036" points="300,365.1174,304,355.1174,308,365.1174,304,361.1174" style="stroke: #A80036; stroke-width: 1.0;"/><polygon fill="#A80036" points="300,200.6758,304,190.6758,308,200.6758,304,196.6758" style="stroke: #A80036; stroke-width: 1.5;"/><line style="stroke: #A80036; stroke-width: 1.5;" x1="304" x2="304" y1="68.1943" y2="318.7288"/><line style="stroke: #A80036; stroke-width: 1.5;" x1="304" x2="208" y1="68.1943" y2="68.1943"/><polygon fill="#A80036" points="218,64.1943,208,68.1943,218,72.1943,214,68.1943" style="stroke: #A80036; stroke-width: 1.0;"/><line style="stroke: #A80036; stroke-width: 1.5;" x1="132" x2="132" y1="30" y2="50"/><polygon fill="#A80036" points="128,40,132,50,136,40,132,44" style="stroke: #A80036; stroke-width: 1.0;"/><!--
@startuml 测距
start
repeat:向测距模块发送驱动脉冲;
->捕获;
:获取返回脉冲宽度;
:计算与障碍物距离;
if(有障碍物？) then(false)
else(true)
if(数据有较大的变化？) then(true)
:n=0，更新数据;
else(false)
:n++;
endif
if(n>=2 && 新的数据？) then(true)
:播放语音提示;
else (false)
endif
endif
backward:间隔一定的时间;
repeat while
@enduml

PlantUML version 1.2019.09(Tue Aug 27 00:19:51 CST 2019)
(GPL source distribution)
Java Runtime: Java(TM) SE Runtime Environment
JVM: Java HotSpot(TM) 64-Bit Server VM
Java Version: 9.0.1+11
Operating System: Windows 10
OS Version: 10.0
Default Encoding: GBK
Language: zh
Country: CN
--></g></svg>