<?xml version="1.0" encoding="UTF-8" standalone="no"?><svg xmlns="http://www.w3.org/2000/svg" xmlns:xlink="http://www.w3.org/1999/xlink" contentScriptType="application/ecmascript" contentStyleType="text/css" height="372px" preserveAspectRatio="none" style="width:411px;height:372px;" version="1.1" viewBox="0 0 411 372" width="411px" zoomAndPan="magnify"><defs><filter height="300%" id="fg5ifv8psljqc" width="300%" x="-1" y="-1"><feGaussianBlur result="blurOut" stdDeviation="2.0"/><feColorMatrix in="blurOut" result="blurOut2" type="matrix" values="0 0 0 0 0 0 0 0 0 0 0 0 0 0 0 0 0 0 .4 0"/><feOffset dx="4.0" dy="4.0" in="blurOut2" result="blurOut3"/><feBlend in="SourceGraphic" in2="blurOut3" mode="normal"/></filter></defs><g><line style="stroke: #A80036; stroke-width: 1.0; stroke-dasharray: 5.0,5.0;" x1="25" x2="25" y1="89.1201" y2="281.8921"/><line style="stroke: #A80036; stroke-width: 1.0; stroke-dasharray: 5.0,5.0;" x1="200" x2="200" y1="89.1201" y2="281.8921"/><line style="stroke: #A80036; stroke-width: 1.0; stroke-dasharray: 5.0,5.0;" x1="381" x2="381" y1="89.1201" y2="281.8921"/><text fill="#000000" font-family="sans-serif" font-size="14" lengthAdjust="spacingAndGlyphs" textLength="28" x="8" y="86.0439">拐杖</text><ellipse cx="25" cy="54" fill="#FEFECE" filter="url(#fg5ifv8psljqc)" rx="12" ry="12" style="stroke: #A80036; stroke-width: 2.0;"/><line style="stroke: #A80036; stroke-width: 2.0;" x1="13" x2="37" y1="68" y2="68"/><text fill="#000000" font-family="sans-serif" font-size="14" lengthAdjust="spacingAndGlyphs" textLength="28" x="8" y="296.936">拐杖</text><ellipse cx="25" cy="316.0122" fill="#FEFECE" filter="url(#fg5ifv8psljqc)" rx="12" ry="12" style="stroke: #A80036; stroke-width: 2.0;"/><line style="stroke: #A80036; stroke-width: 2.0;" x1="13" x2="37" y1="330.0122" y2="330.0122"/><text fill="#000000" font-family="sans-serif" font-size="14" lengthAdjust="spacingAndGlyphs" textLength="42" x="176" y="86.0439">服务器</text><path d="M182,34 C182,24 200,24 200,24 C200,24 218,24 218,34 L218,60 C218,70 200,70 200,70 C200,70 182,70 182,60 L182,34 " fill="#FEFECE" filter="url(#fg5ifv8psljqc)" style="stroke: #000000; stroke-width: 1.5;"/><path d="M182,34 C182,44 200,44 200,44 C200,44 218,44 218,34 " fill="none" style="stroke: #000000; stroke-width: 1.5;"/><text fill="#000000" font-family="sans-serif" font-size="14" lengthAdjust="spacingAndGlyphs" textLength="42" x="176" y="296.936">服务器</text><path d="M182,310.0122 C182,300.0122 200,300.0122 200,300.0122 C200,300.0122 218,300.0122 218,310.0122 L218,336.0122 C218,346.0122 200,346.0122 200,346.0122 C200,346.0122 182,346.0122 182,336.0122 L182,310.0122 " fill="#FEFECE" filter="url(#fg5ifv8psljqc)" style="stroke: #000000; stroke-width: 1.5;"/><path d="M182,310.0122 C182,320.0122 200,320.0122 200,320.0122 C200,320.0122 218,320.0122 218,310.0122 " fill="none" style="stroke: #000000; stroke-width: 1.5;"/><text fill="#000000" font-family="sans-serif" font-size="14" lengthAdjust="spacingAndGlyphs" textLength="42" x="357" y="86.0439">手机端</text><ellipse cx="381" cy="13" fill="#FEFECE" filter="url(#fg5ifv8psljqc)" rx="8" ry="8" style="stroke: #A80036; stroke-width: 2.0;"/><path d="M381,21 L381,48 M368,29 L394,29 M381,48 L368,63 M381,48 L394,63 " fill="none" filter="url(#fg5ifv8psljqc)" style="stroke: #A80036; stroke-width: 2.0;"/><text fill="#000000" font-family="sans-serif" font-size="14" lengthAdjust="spacingAndGlyphs" textLength="42" x="357" y="296.936">手机端</text><ellipse cx="381" cy="310.0122" fill="#FEFECE" filter="url(#fg5ifv8psljqc)" rx="8" ry="8" style="stroke: #A80036; stroke-width: 2.0;"/><path d="M381,318.0122 L381,345.0122 M368,326.0122 L394,326.0122 M381,345.0122 L368,360.0122 M381,345.0122 L394,360.0122 " fill="none" filter="url(#fg5ifv8psljqc)" style="stroke: #A80036; stroke-width: 2.0;"/><polygon fill="#A80036" points="188,118.8745,198,122.8745,188,126.8745,192,122.8745" style="stroke: #A80036; stroke-width: 1.0;"/><line style="stroke: #A80036; stroke-width: 1.0;" x1="25" x2="194" y1="122.8745" y2="122.8745"/><text fill="#000000" font-family="sans-serif" font-size="13" lengthAdjust="spacingAndGlyphs" textLength="151" x="32" y="118.0181">发送GPS定位数据（$...）</text><polygon fill="#A80036" points="36,132.8745,26,136.8745,36,140.8745,32,136.8745" style="stroke: #A80036; stroke-width: 1.0;"/><line style="stroke: #A80036; stroke-width: 1.0; stroke-dasharray: 2.0,2.0;" x1="30" x2="199" y1="136.8745" y2="136.8745"/><polygon fill="#A80036" points="188,164.6289,198,168.6289,188,172.6289,192,168.6289" style="stroke: #A80036; stroke-width: 1.0;"/><line style="stroke: #A80036; stroke-width: 1.0; stroke-dasharray: 2.0,2.0;" x1="25" x2="194" y1="168.6289" y2="168.6289"/><text fill="#000000" font-family="sans-serif" font-size="13" lengthAdjust="spacingAndGlyphs" textLength="52" x="32" y="163.7725">关闭连接</text><polygon fill="#A80036" points="211,196.3833,201,200.3833,211,204.3833,207,200.3833" style="stroke: #A80036; stroke-width: 1.0;"/><line style="stroke: #A80036; stroke-width: 1.0;" x1="205" x2="380" y1="200.3833" y2="200.3833"/><text fill="#000000" font-family="sans-serif" font-size="13" lengthAdjust="spacingAndGlyphs" textLength="157" x="217" y="195.5269">请求GPS定位数据（@...）</text><polygon fill="#A80036" points="369,228.1377,379,232.1377,369,236.1377,373,232.1377" style="stroke: #A80036; stroke-width: 1.0;"/><line style="stroke: #A80036; stroke-width: 1.0;" x1="200" x2="375" y1="232.1377" y2="232.1377"/><text fill="#000000" font-family="sans-serif" font-size="13" lengthAdjust="spacingAndGlyphs" textLength="106" x="207" y="227.2813">发送GPS定位数据</text><polygon fill="#A80036" points="211,259.8921,201,263.8921,211,267.8921,207,263.8921" style="stroke: #A80036; stroke-width: 1.0;"/><line style="stroke: #A80036; stroke-width: 1.0; stroke-dasharray: 2.0,2.0;" x1="205" x2="380" y1="263.8921" y2="263.8921"/><text fill="#000000" font-family="sans-serif" font-size="13" lengthAdjust="spacingAndGlyphs" textLength="52" x="217" y="259.0356">关闭连接</text><!--
@startuml shxitu
entity "拐杖" as e
database "服务器" as d
actor "手机端" as a
e->d:发送GPS定位数据（$...）
d- ->e:
e- ->d:关闭连接
a->d:请求GPS定位数据（@...）
d->a:发送GPS定位数据
a- ->d:关闭连接
@enduml

PlantUML version 1.2019.09(Tue Aug 27 00:19:51 CST 2019)
(GPL source distribution)
Java Runtime: Java(TM) SE Runtime Environment
JVM: Java HotSpot(TM) 64-Bit Server VM
Java Version: 9.0.1+11
Operating System: Windows 10
OS Version: 10.0
Default Encoding: GBK
Language: zh
Country: CN
--></g></svg>