<?xml version="1.0" encoding="UTF-8" standalone="no"?><svg xmlns="http://www.w3.org/2000/svg" xmlns:xlink="http://www.w3.org/1999/xlink" contentScriptType="application/ecmascript" contentStyleType="text/css" height="372px" preserveAspectRatio="none" style="width:426px;height:372px;" version="1.1" viewBox="0 0 426 372" width="426px" zoomAndPan="magnify"><defs><filter height="300%" id="fuujsv1e0na3v" width="300%" x="-1" y="-1"><feGaussianBlur result="blurOut" stdDeviation="2.0"/><feColorMatrix in="blurOut" result="blurOut2" type="matrix" values="0 0 0 0 0 0 0 0 0 0 0 0 0 0 0 0 0 0 .4 0"/><feOffset dx="4.0" dy="4.0" in="blurOut2" result="blurOut3"/><feBlend in="SourceGraphic" in2="blurOut3" mode="normal"/></filter></defs><g><line style="stroke: #A80036; stroke-width: 1.0; stroke-dasharray: 5.0,5.0;" x1="40" x2="40" y1="89.1201" y2="281.8921"/><line style="stroke: #A80036; stroke-width: 1.0; stroke-dasharray: 5.0,5.0;" x1="215.5" x2="215.5" y1="89.1201" y2="281.8921"/><line style="stroke: #A80036; stroke-width: 1.0; stroke-dasharray: 5.0,5.0;" x1="396.5" x2="396.5" y1="89.1201" y2="281.8921"/><text fill="#000000" font-family="sans-serif" font-size="14" lengthAdjust="spacingAndGlyphs" textLength="59" x="8" y="86.0439">GSM模块</text><ellipse cx="40.5" cy="54" fill="#FEFECE" filter="url(#fuujsv1e0na3v)" rx="12" ry="12" style="stroke: #A80036; stroke-width: 2.0;"/><line style="stroke: #A80036; stroke-width: 2.0;" x1="28.5" x2="52.5" y1="68" y2="68"/><text fill="#000000" font-family="sans-serif" font-size="14" lengthAdjust="spacingAndGlyphs" textLength="59" x="8" y="296.936">GSM模块</text><ellipse cx="40.5" cy="316.0122" fill="#FEFECE" filter="url(#fuujsv1e0na3v)" rx="12" ry="12" style="stroke: #A80036; stroke-width: 2.0;"/><line style="stroke: #A80036; stroke-width: 2.0;" x1="28.5" x2="52.5" y1="330.0122" y2="330.0122"/><text fill="#000000" font-family="sans-serif" font-size="14" lengthAdjust="spacingAndGlyphs" textLength="42" x="191.5" y="86.0439">服务器</text><path d="M197.5,34 C197.5,24 215.5,24 215.5,24 C215.5,24 233.5,24 233.5,34 L233.5,60 C233.5,70 215.5,70 215.5,70 C215.5,70 197.5,70 197.5,60 L197.5,34 " fill="#FEFECE" filter="url(#fuujsv1e0na3v)" style="stroke: #000000; stroke-width: 1.5;"/><path d="M197.5,34 C197.5,44 215.5,44 215.5,44 C215.5,44 233.5,44 233.5,34 " fill="none" style="stroke: #000000; stroke-width: 1.5;"/><text fill="#000000" font-family="sans-serif" font-size="14" lengthAdjust="spacingAndGlyphs" textLength="42" x="191.5" y="296.936">服务器</text><path d="M197.5,310.0122 C197.5,300.0122 215.5,300.0122 215.5,300.0122 C215.5,300.0122 233.5,300.0122 233.5,310.0122 L233.5,336.0122 C233.5,346.0122 215.5,346.0122 215.5,346.0122 C215.5,346.0122 197.5,346.0122 197.5,336.0122 L197.5,310.0122 " fill="#FEFECE" filter="url(#fuujsv1e0na3v)" style="stroke: #000000; stroke-width: 1.5;"/><path d="M197.5,310.0122 C197.5,320.0122 215.5,320.0122 215.5,320.0122 C215.5,320.0122 233.5,320.0122 233.5,310.0122 " fill="none" style="stroke: #000000; stroke-width: 1.5;"/><text fill="#000000" font-family="sans-serif" font-size="14" lengthAdjust="spacingAndGlyphs" textLength="42" x="372.5" y="86.0439">手机端</text><ellipse cx="396.5" cy="13" fill="#FEFECE" filter="url(#fuujsv1e0na3v)" rx="8" ry="8" style="stroke: #A80036; stroke-width: 2.0;"/><path d="M396.5,21 L396.5,48 M383.5,29 L409.5,29 M396.5,48 L383.5,63 M396.5,48 L409.5,63 " fill="none" filter="url(#fuujsv1e0na3v)" style="stroke: #A80036; stroke-width: 2.0;"/><text fill="#000000" font-family="sans-serif" font-size="14" lengthAdjust="spacingAndGlyphs" textLength="42" x="372.5" y="296.936">手机端</text><ellipse cx="396.5" cy="310.0122" fill="#FEFECE" filter="url(#fuujsv1e0na3v)" rx="8" ry="8" style="stroke: #A80036; stroke-width: 2.0;"/><path d="M396.5,318.0122 L396.5,345.0122 M383.5,326.0122 L409.5,326.0122 M396.5,345.0122 L383.5,360.0122 M396.5,345.0122 L409.5,360.0122 " fill="none" filter="url(#fuujsv1e0na3v)" style="stroke: #A80036; stroke-width: 2.0;"/><polygon fill="#A80036" points="203.5,118.8745,213.5,122.8745,203.5,126.8745,207.5,122.8745" style="stroke: #A80036; stroke-width: 1.0;"/><line style="stroke: #A80036; stroke-width: 1.0;" x1="40.5" x2="209.5" y1="122.8745" y2="122.8745"/><text fill="#000000" font-family="sans-serif" font-size="13" lengthAdjust="spacingAndGlyphs" textLength="151" x="47.5" y="118.0181">发送GPS定位数据（$...）</text><polygon fill="#A80036" points="51.5,132.8745,41.5,136.8745,51.5,140.8745,47.5,136.8745" style="stroke: #A80036; stroke-width: 1.0;"/><line style="stroke: #A80036; stroke-width: 1.0; stroke-dasharray: 2.0,2.0;" x1="45.5" x2="214.5" y1="136.8745" y2="136.8745"/><polygon fill="#A80036" points="203.5,164.6289,213.5,168.6289,203.5,172.6289,207.5,168.6289" style="stroke: #A80036; stroke-width: 1.0;"/><line style="stroke: #A80036; stroke-width: 1.0; stroke-dasharray: 2.0,2.0;" x1="40.5" x2="209.5" y1="168.6289" y2="168.6289"/><text fill="#000000" font-family="sans-serif" font-size="13" lengthAdjust="spacingAndGlyphs" textLength="52" x="47.5" y="163.7725">关闭连接</text><polygon fill="#A80036" points="226.5,196.3833,216.5,200.3833,226.5,204.3833,222.5,200.3833" style="stroke: #A80036; stroke-width: 1.0;"/><line style="stroke: #A80036; stroke-width: 1.0;" x1="220.5" x2="395.5" y1="200.3833" y2="200.3833"/><text fill="#000000" font-family="sans-serif" font-size="13" lengthAdjust="spacingAndGlyphs" textLength="157" x="232.5" y="195.5269">请求GPS定位数据（@...）</text><polygon fill="#A80036" points="384.5,228.1377,394.5,232.1377,384.5,236.1377,388.5,232.1377" style="stroke: #A80036; stroke-width: 1.0;"/><line style="stroke: #A80036; stroke-width: 1.0;" x1="215.5" x2="390.5" y1="232.1377" y2="232.1377"/><text fill="#000000" font-family="sans-serif" font-size="13" lengthAdjust="spacingAndGlyphs" textLength="106" x="222.5" y="227.2813">发送GPS定位数据</text><polygon fill="#A80036" points="226.5,259.8921,216.5,263.8921,226.5,267.8921,222.5,263.8921" style="stroke: #A80036; stroke-width: 1.0;"/><line style="stroke: #A80036; stroke-width: 1.0; stroke-dasharray: 2.0,2.0;" x1="220.5" x2="395.5" y1="263.8921" y2="263.8921"/><text fill="#000000" font-family="sans-serif" font-size="13" lengthAdjust="spacingAndGlyphs" textLength="52" x="232.5" y="259.0356">关闭连接</text><!--
@startuml shxitu
entity "GSM模块" as e
database "服务器" as d
actor "手机端" as a
e->d:发送GPS定位数据（$...）
d- ->e:
e- ->d:关闭连接
a->d:请求GPS定位数据（@...）
d->a:发送GPS定位数据
a- ->d:关闭连接
@enduml

PlantUML version 1.2019.09(Tue Aug 27 00:19:51 CST 2019)
(GPL source distribution)
Java Runtime: Java(TM) SE Runtime Environment
JVM: Java HotSpot(TM) 64-Bit Server VM
Java Version: 9.0.1+11
Operating System: Windows 10
OS Version: 10.0
Default Encoding: GBK
Language: zh
Country: CN
--></g></svg>